<svg xmlns="http://www.w3.org/2000/svg" viewBox="0 0 200 200">
  <defs>
    <linearGradient id="gwood" x1="0" y1="0" x2="1" y2="0">
      <stop offset="0" stop-color="#7a4f26"/><stop offset=".5" stop-color="#4c2f16"/><stop offset="1" stop-color="#8a5c2c"/>
    </linearGradient>
    <linearGradient id="gstring" x1="0" y1="0" x2="0" y2="1">
      <stop offset="0" stop-color="#f0f0ec"/><stop offset="1" stop-color="#bebfb8"/>
    </linearGradient>
  </defs>
  <ellipse cx="100" cy="188" rx="26" ry="5" fill="#000" opacity=".12"/>
  <g>
    <animateTransform attributeName="transform" type="rotate" values="-2 100 100; 2 100 100; -2 100 100" dur="3s" calcMode="spline" keySplines=".45 0 .55 1; .45 0 .55 1" repeatCount="indefinite"/>
    <path d="M100,14 C 52,52 46,150 100,186" fill="none" stroke="url(#gwood)" stroke-width="15" stroke-linecap="round"/>
    <path d="M96,14 C 50,52 44,150 96,186" fill="none" stroke="#b07c45" stroke-width="3" opacity=".7"/>
    <path d="M104,16 C 152,52 156,150 104,184" fill="none" stroke="#ffe9c4" stroke-width="3" opacity=".5"/>
    <line x1="97" y1="20" x2="97" y2="180" stroke="url(#gstring)" stroke-width="3"/>
    <rect x="91" y="94" width="18" height="14" rx="4" fill="#2a1a10"/>
    <g>
      <animateTransform attributeName="transform" type="translate" values="0 0; 54 -52; 54 -52" dur="2.6s" keyTimes="0;.22;1" repeatCount="indefinite"/>
      <line x1="99" y1="96" x2="152" y2="42" stroke="#6b4423" stroke-width="3.5"/>
      <path d="M150,44 L162,32 L158,50 Z" fill="#c0c7cf"/>
      <polygon points="96,98 88,92 92,100" fill="#d8433a"/>
      <polygon points="96,98 90,101 92,108" fill="#e07b34"/>
      <polygon points="96,98 99,100 103,92" fill="#e0c23a"/>
    </g>
    <g>
      <animate attributeName="opacity" values="1;1;0;0" keyTimes="0;.2;.3;1" dur="2.6s" repeatCount="indefinite"/>
      <circle cx="158" cy="38" r="7" fill="#fff" opacity=".5"/>
    </g>
  </g>
</svg>